<svg width="1440" height="548" viewBox="0 0 1440 548" fill="none" xmlns="http://www.w3.org/2000/svg">
<g clip-path="url(#clip0)">
<g clip-path="url(#clip1)">
<path opacity="0.35" d="M1421.86 125.119C1378.72 146.055 1292.44 214.095 1206.17 221.03C1119.89 228.488 1009.35 155.737 924.47 137.681C833.447 118.315 774.778 149.98 688.5 177.458C602.222 204.936 515.944 233.722 429.667 226.264C343.389 219.329 257.111 177.458 170.833 177.458C84.5556 177.458 -1.72222 219.329 -44.8611 240.264L-88 261.2V266.564V269.05V290.117C-88 290.117 -52.4104 295.743 -20.1641 283.182C21.0335 267.088 94.9089 247.461 176.226 248.115C249.67 248.769 295.181 278.21 350.938 297.313C483.159 342.848 590.359 388.251 726.031 415.729C861.703 443.207 1064.35 433.001 1200.02 404.607C1308.08 382.363 1349.17 348.474 1457.24 333.296C1459.72 332.903 1464.78 332.249 1464.78 332.249L1464.89 269.181V104.315L1421.86 125.119Z" fill="#00A3FB" fill-opacity="0.1"/>
<path opacity="0.29" d="M1470.61 378.569V1.73108L1433.62 15.7316C1396.62 29.2088 1322.86 57.995 1248.44 85.4728C1174.78 112.951 1100.69 141.737 1027.36 190.15C952.941 238.563 878.527 309.22 805.191 329.763C731.1 351.091 657.44 322.305 583.025 252.956C509.258 183.608 435.275 71.0797 360.86 50.5368C287.416 29.2088 213.109 99.8659 139.773 120.409C65.4666 141.737 -7.97736 112.951 -45.7239 99.4734L-86.7058 85.4728L-88 261.723C-88 261.723 -46.371 274.808 -31.4881 286.06C35.2694 336.175 51.4465 336.567 94.5854 331.726C144.195 326.23 181.834 282.397 250.425 266.826C270.7 262.246 297.77 263.293 334.006 289.986C385.989 328.193 404.107 359.334 420.823 372.288C421.255 372.681 421.686 372.942 422.225 373.335C422.657 373.728 423.196 374.251 423.951 374.905C434.196 385.111 467.845 415.991 501.709 438.758C544.416 467.414 604.163 490.704 604.163 490.704C703.167 519.229 965.883 521.977 1163.89 522.369C1271.41 522.107 1378.94 505.752 1470.61 486.386" fill="#00A3FB" fill-opacity="0.2"/>
</g>
</g>
<defs>
<clipPath id="clip0">
<rect x="-128" width="1696" height="548" fill="white"/>
</clipPath>
<clipPath id="clip1">
<rect x="-88" y="1" width="1553" height="547" fill="white"/>
</clipPath>
</defs>
</svg>
