<?xml version="1.0" encoding="UTF-8" standalone="no"?> <!-- Created with Inkscape (http://www.inkscape.org/) --> <svg xmlns:inkscape="http://www.inkscape.org/namespaces/inkscape" xmlns:rdf="http://www.w3.org/1999/02/22-rdf-syntax-ns#" xmlns="http://www.w3.org/2000/svg" xmlns:cc="http://creativecommons.org/ns#" xmlns:dc="http://purl.org/dc/elements/1.1/" xmlns:sodipodi="http://sodipodi.sourceforge.net/DTD/sodipodi-0.dtd" xmlns:svg="http://www.w3.org/2000/svg" xmlns:ns1="http://sozi.baierouge.fr" xmlns:xlink="http://www.w3.org/1999/xlink" id="svg4032" sodipodi:docname="dancing_people.svg" viewBox="0 0 450 250" inkscape:version="0.47 r22583"><g id="layer1" inkscape:label="Layer 1" inkscape:groupmode="layer" transform="translate(0 -802.36)"><path id="path3779" style="stroke:#000000;stroke-width:.31457px;fill:#5c3566" d="m126.7 842.55c-18.92-13.76-63.831 140.59-38.566 120.01 11.108-9.04-53.405-102.16-77.169-82.71 43.604 18.27 87 35.27 115.74-37.3z" inkscape:export-ydpi="91.190002" sodipodi:nodetypes="cscc" inkscape:export-filename="D:\FASTALLOY\VAT\TTD\2009 TTD\TTD DEC 2009\today\Hind motor\logo\dancing_people\dancing_people.png" inkscape:export-xdpi="91.190002"></path><path id="path3783" sodipodi:rx="101.90763" sodipodi:ry="91.099243" style="fill-rule:evenodd;stroke-width:0;fill:#4e9a06" sodipodi:type="arc" d="m-1343.3 2264.4a101.91 91.099 0 1 1 -203.82 0 101.91 91.099 0 1 1 203.82 0z" inkscape:export-ydpi="91.190002" inkscape:export-filename="D:\FASTALLOY\VAT\TTD\2009 TTD\TTD DEC 2009\today\Hind motor\logo\dancing_people\dancing_people.png" transform="matrix(.13987 -.25137 .23085 .13859 55.789 207.86)" sodipodi:cy="2264.4453" sodipodi:cx="-1445.2355" inkscape:export-xdpi="91.190002"></path><path id="path3792" style="stroke:#000000;stroke-width:.31457px;fill:#5c3566" d="m216.34 857s34.276 105.81 56.228 99.591c26.404-7.4848 61.459-112.58 61.459-112.58 12.968 68.428-102.27 108.35-117.69 12.99z" inkscape:export-ydpi="91.190002" sodipodi:nodetypes="cscc" inkscape:export-filename="D:\FASTALLOY\VAT\TTD\2009 TTD\TTD DEC 2009\today\Hind motor\logo\dancing_people\dancing_people.png" inkscape:export-xdpi="91.190002"></path><path id="path3794" sodipodi:rx="101.90763" sodipodi:ry="91.099243" style="fill-rule:evenodd;stroke-width:0;fill:#3465a4" sodipodi:type="arc" d="m-1343.3 2264.4a101.91 91.099 0 1 1 -203.82 0 101.91 91.099 0 1 1 203.82 0z" inkscape:export-ydpi="91.190002" inkscape:export-filename="D:\FASTALLOY\VAT\TTD\2009 TTD\TTD DEC 2009\today\Hind motor\logo\dancing_people\dancing_people.png" transform="matrix(.080829 -.29890 -.25918 -.068813 874.01 589.23)" sodipodi:cy="2264.4453" sodipodi:cx="-1445.2355" inkscape:export-xdpi="91.190002"></path><path id="path3796" style="stroke:#000000;stroke-width:.31457px;fill:#5c3566" d="m321.07 837.38s16.375 116.73 38.563 120.02c26.688 3.9547 77.169-82.712 77.169-82.712-6.0685 87.643-100.35 78.846-115.73-37.304z" inkscape:export-ydpi="91.190002" sodipodi:nodetypes="cscc" inkscape:export-filename="D:\FASTALLOY\VAT\TTD\2009 TTD\TTD DEC 2009\today\Hind motor\logo\dancing_people\dancing_people.png" inkscape:export-xdpi="91.190002"></path><path id="path3798" sodipodi:rx="101.90763" sodipodi:ry="91.099243" style="fill-rule:evenodd;stroke-width:0;fill:#f57900" sodipodi:type="arc" d="m-1343.3 2264.4a101.91 91.099 0 1 1 -203.82 0 101.91 91.099 0 1 1 203.82 0z" inkscape:export-ydpi="91.190002" inkscape:export-filename="D:\FASTALLOY\VAT\TTD\2009 TTD\TTD DEC 2009\today\Hind motor\logo\dancing_people\dancing_people.png" transform="matrix(-.14748 -.27948 -.22881 .14613 375.22 112.47)" sodipodi:cy="2264.4453" sodipodi:cx="-1445.2355" inkscape:export-xdpi="91.190002"></path><path id="path3800" style="stroke:#000000;stroke-width:.31457px;fill:#5c3566" d="m228.92 859.72s-34.276 105.81-56.228 99.591c-26.404-7.4848-61.459-112.58-61.459-112.58 2.9124 103.41 76.206 77.425 117.69 12.99z" inkscape:export-ydpi="91.190002" sodipodi:nodetypes="cscc" inkscape:export-filename="D:\FASTALLOY\VAT\TTD\2009 TTD\TTD DEC 2009\today\Hind motor\logo\dancing_people\dancing_people.png" inkscape:export-xdpi="91.190002"></path><path id="path3802" sodipodi:rx="101.90763" sodipodi:ry="91.099243" style="fill-rule:evenodd;stroke-width:0;fill:#f57900" sodipodi:type="arc" d="m-1343.3 2264.4a101.91 91.099 0 1 1 -203.82 0 101.91 91.099 0 1 1 203.82 0z" inkscape:export-ydpi="91.190002" inkscape:export-filename="D:\FASTALLOY\VAT\TTD\2009 TTD\TTD DEC 2009\today\Hind motor\logo\dancing_people\dancing_people.png" transform="matrix(.075616 -.27962 .25918 .068813 -207.93 306.12)" sodipodi:cy="2264.4453" sodipodi:cx="-1445.2355" inkscape:export-xdpi="91.190002"></path><path id="path3804" style="stroke:#000000;stroke-width:.28175px;fill:#2e3436" d="m131.68 1047.9s-15.675-97.818-36.914-100.57c-25.547-3.314-73.87 69.313-73.87 69.313 41.74-15.308 83.281-29.555 110.78 31.26z" inkscape:export-ydpi="91.190002" sodipodi:nodetypes="cscc" inkscape:export-filename="D:\FASTALLOY\VAT\TTD\2009 TTD\TTD DEC 2009\today\Hind motor\logo\dancing_people\dancing_people.png" inkscape:export-xdpi="91.190002"></path><path id="path3806" style="stroke:#000000;stroke-width:.28175px;fill:#2e3436" d="m217.49 1035.8s32.811-88.672 53.825-83.457c25.275 6.2722 58.832 94.343 58.832 94.343-37.552-30.265-75.104-59.431-112.66-10.886z" inkscape:export-ydpi="91.190002" sodipodi:nodetypes="cscc" inkscape:export-filename="D:\FASTALLOY\VAT\TTD\2009 TTD\TTD DEC 2009\today\Hind motor\logo\dancing_people\dancing_people.png" inkscape:export-xdpi="91.190002"></path><path id="path3808" style="stroke:#000000;stroke-width:.28175px;fill:#2e3436" d="m317.74 1052.2s15.675-97.818 36.914-100.57c25.547-3.314 73.87 69.313 73.87 69.313-45.992-58.799-87.865-76.448-110.78 31.26z" inkscape:export-ydpi="91.190002" sodipodi:nodetypes="cscc" inkscape:export-filename="D:\FASTALLOY\VAT\TTD\2009 TTD\TTD DEC 2009\today\Hind motor\logo\dancing_people\dancing_people.png" inkscape:export-xdpi="91.190002"></path><path id="path3810" style="stroke:#000000;stroke-width:.28175px;fill:#2e3436" d="m229.54 1033.5s-32.811-88.672-53.825-83.458c-25.275 6.2723-58.832 94.343-58.832 94.343 26.617-54.643 40.539-136.49 112.66-10.886z" inkscape:export-ydpi="91.190002" sodipodi:nodetypes="cscc" inkscape:export-filename="D:\FASTALLOY\VAT\TTD\2009 TTD\TTD DEC 2009\today\Hind motor\logo\dancing_people\dancing_people.png" inkscape:export-xdpi="91.190002"></path><path id="path3816" sodipodi:rx="58.674088" sodipodi:ry="20.072714" style="fill-rule:evenodd;stroke-width:0;fill:#2e3436" sodipodi:type="arc" d="m-1377.3 2381.8a58.674 20.073 0 1 1 -117.35 0 58.674 20.073 0 1 1 117.35 0z" inkscape:export-ydpi="91.190002" inkscape:export-filename="D:\FASTALLOY\VAT\TTD\2009 TTD\TTD DEC 2009\today\Hind motor\logo\dancing_people\dancing_people.png" transform="matrix(.26833 0 0 .43915 401.06 -24.174)" sodipodi:cy="2381.7935" sodipodi:cx="-1435.9711" inkscape:export-xdpi="91.190002"></path><path id="path3824" sodipodi:rx="43.23354" sodipodi:ry="12.35244" style="fill-rule:evenodd;stroke-width:0;fill:#2e3436" sodipodi:type="arc" d="m-963.49 2429.7a43.234 12.352 0 1 1 -86.467 0 43.234 12.352 0 1 1 86.467 0z" inkscape:export-ydpi="91.190002" inkscape:export-filename="D:\FASTALLOY\VAT\TTD\2009 TTD\TTD DEC 2009\today\Hind motor\logo\dancing_people\dancing_people.png" transform="matrix(.26833 0 0 .43915 401.06 -24.174)" sodipodi:cy="2429.6592" sodipodi:cx="-1006.7238" inkscape:export-xdpi="91.190002"></path><path id="path3826" sodipodi:rx="58.674088" sodipodi:ry="18.52866" style="fill-rule:evenodd;stroke-width:0;fill:#2e3436" sodipodi:type="arc" d="m-599.09 2417.3a58.674 18.529 0 1 1 -117.35 0 58.674 18.529 0 1 1 117.35 0z" inkscape:export-ydpi="91.190002" inkscape:export-filename="D:\FASTALLOY\VAT\TTD\2009 TTD\TTD DEC 2009\today\Hind motor\logo\dancing_people\dancing_people.png" transform="matrix(.26833 0 0 .43915 401.06 -24.174)" sodipodi:cy="2417.3069" sodipodi:cx="-657.7674" inkscape:export-xdpi="91.190002"></path><path id="path3828" sodipodi:rx="67.938416" sodipodi:ry="20.072714" style="fill-rule:evenodd;stroke-width:0;fill:#2e3436" sodipodi:type="arc" d="m-216.17 2425a67.938 20.073 0 1 1 -135.88 0 67.938 20.073 0 1 1 135.88 0z" inkscape:export-ydpi="91.190002" inkscape:export-filename="D:\FASTALLOY\VAT\TTD\2009 TTD\TTD DEC 2009\today\Hind motor\logo\dancing_people\dancing_people.png" transform="matrix(.26833 0 0 .43915 401.06 -24.174)" sodipodi:cy="2425.0271" sodipodi:cx="-284.10611" inkscape:export-xdpi="91.190002"></path><path id="path3830" sodipodi:rx="66.394363" sodipodi:ry="18.52866" style="fill-rule:evenodd;stroke-width:0;fill:#2e3436" sodipodi:type="arc" d="m145.14 2380.2a66.394 18.529 0 1 1 -132.79 0 66.394 18.529 0 1 1 132.79 0z" inkscape:export-ydpi="91.190002" inkscape:export-filename="D:\FASTALLOY\VAT\TTD\2009 TTD\TTD DEC 2009\today\Hind motor\logo\dancing_people\dancing_people.png" transform="matrix(.26833 0 0 .43915 401.06 -24.174)" sodipodi:cy="2380.2495" sodipodi:cx="78.746803" inkscape:export-xdpi="91.190002"></path><path id="path2982" style="stroke:#000000;stroke-width:.28175px;fill:#696969" d="m131.68 1047.9s-15.675-97.818-36.914-100.57c-25.547-3.314-73.87 69.313-73.87 69.313 41.74-15.308 83.281-29.555 110.78 31.26z" inkscape:export-ydpi="91.190002" sodipodi:nodetypes="cscc" inkscape:export-filename="D:\FASTALLOY\VAT\TTD\2009 TTD\TTD DEC 2009\today\Hind motor\logo\dancing_people\dancing_people.png" inkscape:export-xdpi="91.190002"></path></g><metadata></metadata></svg> 